#!OML:ASF H:\Terrain\Patient Classification 1\Takeo\Monday\TakeoMonday.ASF
:FULLY-SPECIFIED
:DEGREES
1816
root 7.72058 13.2392 -1.90116 13.8375 38.3663 -0.844333
lowerback 40.6461 -2.11492 11.3416
upperback 16.0104 2.23533 -2.62882
thorax -1.14495 2.22968 -9.40082
lowerneck -26.4697 -1.27364 -1.76386
upperneck 5.89177 0.120718 -8.07604
head 5.98254 -0.658429 -2.35722
rclavicle -1.74931e-014 5.24792e-014
rhumerus 51.1515 25.1468 -44.9201
rradius 63.7866
rwrist 17.3377
rhand -41.2202 53.9545
rfingers 7.12502
rthumb -14.1438 24.4559
lclavicle -1.74931e-014 5.24792e-014
lhumerus -14.9891 -14.6964 86.0991
lradius 66.507
lwrist 33.863
lhand -29.0005 10.6213
lfingers 7.12502
lthumb -2.35216 40.588
rfemur -80.271 -29.6563 32.9399
rtibia 93.5659
rfoot -29.2362 -11.2833
rtoes -0.229315
lfemur -71.2447 -5.4007 -19.8506
ltibia 95.4068
lfoot -31.7317 11.2524
ltoes -13.1777
1817
root 7.72033 13.3365 -1.89761 13.5644 38.3763 -0.810533
lowerback 39.3723 -1.89538 10.9204
upperback 16.717 2.21901 -2.45763
thorax -0.0117985 2.29767 -8.96255
lowerneck -27.228 -1.23004 -1.71332
upperneck 5.48341 0.196395 -8.18326
head 5.96235 -0.625645 -2.39773
rclavicle -6.04305e-014 4.85035e-014
rhumerus 52.2521 24.5049 -44.1189
rradius 64.5584
rwrist 17.0839
rhand -41.1862 53.9673
rfingers 7.12502
rthumb -14.1111 24.4664
lclavicle -6.04305e-014 4.85035e-014
lhumerus -14.0098 -14.3002 86.0728
lradius 65.7997
lwrist 33.7059
lhand -29.1368 10.018
lfingers 7.12502
lthumb -2.48386 39.9833
rfemur -79.1507 -29.5752 32.5475
rtibia 92.5713
rfoot -29.0807 -11.2488
rtoes 0.325091
lfemur -70.3405 -5.2966 -19.921
ltibia 94.3986
lfoot -31.3515 11.088
ltoes -12.7326
1818
root 7.72195 13.4326 -1.89363 13.4316 38.4036 -0.591787
lowerback 38.163 -1.70228 10.4597
upperback 17.3166 2.16442 -2.35501
thorax 0.829228 2.31444 -8.59985
lowerneck -27.5309 -1.21421 -1.68486
upperneck 4.82078 0.199323 -8.2803
head 5.78965 -0.60905 -2.43011
rclavicle -7.95139e-015 6.44062e-014
rhumerus 53.1466 23.9789 -43.3642
rradius 65.2626
rwrist 16.7559
rhand -40.8911 54.2784
rfingers 7.12502
rthumb -13.8266 24.7579
lclavicle -7.95139e-015 6.44062e-014
lhumerus -13.3316 -13.944 86.0455
lradius 65.115
lwrist 33.5822
lhand -29.4022 10.3841
lfingers 7.12502
lthumb -2.7401 40.3462
rfemur -78.1314 -29.5843 32.0612
rtibia 91.5813
rfoot -28.789 -11.3323
rtoes 0.538495
lfemur -69.4139 -5.29784 -20.1313
ltibia 93.3525
lfoot -31.059 11.1051
ltoes -12.9897
1819
root 7.72717 13.541 -1.88154 13.0388 38.3807 -0.626678
lowerback 37.3619 -1.52985 10.2113
upperback 17.608 2.21106 -2.26565
thorax 1.39367 2.36085 -8.37664
lowerneck -27.4905 -1.29051 -1.85081
upperneck 4.15422 0.107948 -8.23253
head 5.56185 -0.623222 -2.39046
rclavicle 6.20208e-014 -7.99114e-014
rhumerus 53.6713 23.6429 -42.8027
rradius 65.9379
rwrist 16.561
rhand -40.9751 53.9921
rfingers 7.12502
rthumb -13.9077 24.4771
lclavicle 6.20208e-014 -7.99114e-014
lhumerus -13.1089 -13.5851 86.1357
lradius 64.7198
lwrist 33.4338
lhand -29.4558 10.989
lfingers 7.12502
lthumb -2.7919 40.9504
rfemur -76.7813 -29.5024 31.6702
rtibia 90.4796
rfoot -28.5755 -11.4885
rtoes 0.126544
lfemur -68.2637 -5.16206 -20.1226
ltibia 92.2979
lfoot -31.1048 10.66
ltoes -11.874
1820
root 7.73437 13.6551 -1.86619 12.3778 38.2897 -0.945753
lowerback 36.9018 -1.39195 10.1299
upperback 17.728 2.30335 -2.1968
thorax 1.68456 2.4163 -8.28147
lowerneck -27.4592 -1.42891 -2.19464
upperneck 3.73423 -0.0285617 -7.87697
head 5.41068 -0.648018 -2.23068
rclavicle 7.95139e-015 6.75868e-015
rhumerus 53.9474 23.4523 -42.6499
rradius 66.6303
rwrist 16.7249
rhand -41.351 53.2518
rfingers 7.12502
rthumb -14.2698 23.7621
lclavicle 7.95139e-015 6.75868e-015
lhumerus -13.0665 -13.3076 86.1062
lradius 64.4501
lwrist 33.5992
lhand -29.3944 11.5517
lfingers 7.12502
lthumb -2.73262 41.5139
rfemur -75.1939 -29.2837 31.4299
rtibia 89.2821
rfoot -28.4244 -11.7325
rtoes -0.928892
lfemur -67.0276 -4.90636 -19.883
ltibia 91.2595
lfoot -31.059 10.1176
ltoes -10.0287
1821
root 7.74251 13.762 -1.85096 11.6327 38.1858 -1.29075
lowerback 36.6817 -1.31368 10.0459
upperback 17.715 2.34551 -2.18825
thorax 1.74323 2.43058 -8.2401
lowerneck -27.5672 -1.48906 -2.43773
upperneck 3.58854 -0.078448 -7.45775
head 5.3711 -0.637996 -2.06118
rclavicle -2.14687e-014 -2.3059e-014
rhumerus 54.1108 23.2845 -42.7876
rradius 67.2499
rwrist 17.038
rhand -41.1016 53.1632
rfingers 7.12502
rthumb -14.0296 23.6566
lclavicle -2.14687e-014 -2.3059e-014
lhumerus -13.0318 -12.9658 86.0245
lradius 63.8913
lwrist 33.9605
lhand -29.5417 12.1626
lfingers 7.12502
lthumb -2.8749 42.123
rfemur -73.5716 -29.0629 31.1647
rtibia 88.0592
rfoot -28.1179 -11.9961
rtoes -1.58235
lfemur -65.6993 -4.65249 -19.6434
ltibia 90.2129
lfoot -30.664 10.0497
ltoes -9.52196
1822
root 7.75548 13.8699 -1.83856 10.8761 38.0698 -1.57987
lowerback 36.6222 -1.26114 10.0807
upperback 17.5208 2.40537 -2.21199
thorax 1.56118 2.44061 -8.30682
lowerneck -27.2973 -1.50664 -2.50212
upperneck 3.43986 -0.121301 -7.33219
head 5.28237 -0.639753 -2.00947
rclavicle 5.24792e-014 -1.94809e-014
rhumerus 53.9188 23.2894 -42.9381
rradius 67.8604
rwrist 17.0108
rhand -40.8015 53.5323
rfingers 7.12502
rthumb -13.7404 24.006
lclavicle 5.24792e-014 -1.94809e-014
lhumerus -13.4057 -12.5945 86.2455
lradius 63.2072
lwrist 33.9173
lhand -29.5079 12.4198
lfingers 7.12502
lthumb -2.84221 42.3806
rfemur -71.8685 -28.8971 30.8044
rtibia 86.811
rfoot -27.8062 -12.1227
rtoes -1.64551
lfemur -64.2807 -4.38483 -19.4847
ltibia 89.1682
lfoot -30.5408 10.0146
ltoes -9.67822
1823
root 7.77618 13.9734 -1.83248 10.464 37.89 -1.50181
lowerback 36.5271 -1.1687 10.0133
upperback 17.1927 2.47075 -2.3019
thorax 1.23816 2.43375 -8.39769
lowerneck -26.4753 -1.50678 -2.34096
upperneck 2.9748 -0.228657 -7.55358
head 5.01638 -0.675593 -2.10204
rclavicle 9.54166e-014 -1.78906e-014
rhumerus 53.5702 23.4928 -42.9737
rradius 68.6974
rwrist 16.4873
rhand -40.7799 53.2016
rfingers 7.12502
rthumb -13.7195 23.6738
lclavicle 9.54166e-014 -1.78906e-014
lhumerus -14.1437 -12.4352 86.4806
lradius 62.7308
lwrist 33.7586
lhand -29.2229 12.2294
lfingers 7.12502
lthumb -2.56694 42.1937
rfemur -70.3846 -28.7554 30.1611
rtibia 85.6515
rfoot -27.8481 -11.9633
rtoes -1.31532
lfemur -62.9985 -4.26457 -19.654
ltibia 88.1444
lfoot -30.4416 9.91937
ltoes -10.0671
1824
root 7.79544 14.0691 -1.82309 10.0529 37.7767 -1.5301
lowerback 36.3101 -1.09125 9.90747
upperback 16.8726 2.4948 -2.34177
thorax 0.9536 2.40143 -8.40076
lowerneck -25.7768 -1.51318 -2.25791
upperneck 2.52548 -0.319541 -7.68766
head 4.77246 -0.699632 -2.15332
rclavicle -3.97569e-015 -3.77691e-014
rhumerus 53.4982 23.6812 -42.9184
rradius 69.5193
rwrist 16.0328
rhand -40.4492 52.4837
rfingers 7.12502
rthumb -13.4008 22.9347
lclavicle -3.97569e-015 -3.77691e-014
lhumerus -14.8161 -12.2786 86.5302
lradius 62.3565
lwrist 33.8663
lhand -29.3281 12.4289
lfingers 7.12502
lthumb -2.66856 42.3919
rfemur -69.05 -28.6629 29.7056
rtibia 84.5569
rfoot -27.9453 -11.8003
rtoes -0.674135
lfemur -61.8432 -4.27534 -19.6758
ltibia 87.1717
lfoot -30.2016 9.87412
ltoes -9.74437
1825
root 7.8061 14.1585 -1.80751 9.45583 37.7959 -1.97642
lowerback 36.1447 -1.06902 10.0795
upperback 16.3993 2.5419 -2.32776
thorax 0.506975 2.37506 -8.50228
lowerneck -25.1208 -1.46716 -2.20054
upperneck 2.22459 -0.332584 -7.71539
head 4.58363 -0.684581 -2.15967
rclavicle -1.19271e-014 -1.98785e-015
rhumerus 53.2704 23.9258 -42.9359
rradius 70.0776
rwrist 16.2764
rhand -40.7832 52.5744
rfingers 7.12502
rthumb -13.7227 23.0469
lclavicle -1.19271e-014 -1.98785e-015
lhumerus -15.4712 -12.1178 86.5368
lradius 61.7214
lwrist 34.0118
lhand -29.6304 12.6526
lfingers 7.12502
lthumb -2.96057 42.6118
rfemur -67.8199 -28.569 29.7746
rtibia 83.4477
rfoot -27.5788 -12.0591
rtoes -0.706832
lfemur -60.879 -4.2131 -19.2814
ltibia 86.2467
lfoot -30.2118 9.56579
ltoes -8.19315
1826
root 7.82105 14.2567 -1.79192 8.86834 37.6389 -2.06504
lowerback 36.5969 -1.02917 10.0643
upperback 15.6894 2.60908 -2.49345
thorax -0.407454 2.32007 -8.72236
lowerneck -24.1791 -1.28101 -1.67459
upperneck 1.92071 -0.299027 -7.93069
head 4.35594 -0.650645 -2.29131
rclavicle 8.50798e-014 -7.99114e-014
rhumerus 52.6626 24.3378 -43.3618
rradius 70.6641
rwrist 16.5478
rhand -41.2301 52.2028
rfingers 7.12502
rthumb -14.1533 22.7049
lclavicle 8.50798e-014 -7.99114e-014
lhumerus -16.5104 -12.1478 86.4841
lradius 61.144
lwrist 34.1692
lhand -29.6826 12.1608
lfingers 7.12502
lthumb -3.01095 42.1193
rfemur -66.3045 -28.4265 29.3449
rtibia 82.3311
rfoot -27.1775 -12.1724
rtoes -0.669827
lfemur -59.5407 -4.02101 -19.2779
ltibia 85.2342
lfoot -30.2488 9.29268
ltoes -7.51933
